<?xml version="1.0"?>
<svg xmlns="http://www.w3.org/2000/svg" xmlns:xlink="http://www.w3.org/1999/xlink" version="1.1" id="Capa_1" x="0px" y="0px" viewBox="-10 -10 532 532" style="enable-background:new 0 0 512 512; stroke: #383838; stroke-width: 20px; " xml:space="preserve" width="512px" height="512px" class="">
<g>
<path style="fill:none;" d="M279.424,191.996H160v-48c0-6.272-3.68-11.968-9.376-14.56c-5.728-2.624-12.448-1.6-17.152,2.528  l-128,112C1.984,247.004,0,251.388,0,255.996c0,4.608,1.984,8.992,5.472,12.032l128,112c4.704,4.16,11.456,5.152,17.152,2.528  c5.696-2.592,9.376-8.288,9.376-14.56v-48h34.112L279.424,191.996z" data-original="#2196F3" class=""/>
<path style="fill:none" d="M506.528,243.964l-128-112c-4.704-4.096-11.392-5.088-17.152-2.528  c-5.728,2.592-9.376,8.288-9.376,14.56v48h-34.112l-85.344,128H352v48c0,6.272,3.648,11.968,9.376,14.56  c2.112,0.96,4.384,1.44,6.624,1.44c3.808,0,7.552-1.344,10.528-3.968l128-112c3.488-3.04,5.472-7.424,5.472-12.032  C512,251.388,510.016,247.004,506.528,243.964z" data-original="#4CAF50" class="active-path"/>
</g> 
</svg>
